{
	"accessors" : 
	[
		{
			"bufferView" : 2,
			"byteOffset" : 0,
			"componentType" : 5126,
			"count" : 12798,
			"max" : 
			[
				1,
				1,
				1,
				1
			],
			"min" : 
			[
				5.692175545846112e-05,
				0.006584956776350737,
				0.006584956776350737,
				1
			],
			"name" : "accessor_color_m0-PolyPaper5_-296478",
			"type" : "VEC4"
		},
		{
			"bufferView" : 2,
			"byteOffset" : 204768,
			"componentType" : 5126,
			"count" : 2484,
			"max" : 
			[
				1,
				1,
				1,
				1
			],
			"min" : 
			[
				1,
				1,
				1,
				1
			],
			"name" : "accessor_color_m1-PolyGem25_-296484",
			"type" : "VEC4"
		},
		{
			"bufferView" : 2,
			"byteOffset" : 244512,
			"componentType" : 5126,
			"count" : 696,
			"max" : 
			[
				1,
				1,
				1,
				1
			],
			"min" : 
			[
				1,
				1,
				1,
				1
			],
			"name" : "accessor_color_m2-PolyGlass24_-296490",
			"type" : "VEC4"
		},
		{
			"bufferView" : 2,
			"byteOffset" : 255648,
			"componentType" : 5126,
			"count" : 13650,
			"max" : 
			[
				1,
				1,
				1,
				1
			],
			"min" : 
			[
				0,
				0.006584956776350737,
				0.006584956776350737,
				1
			],
			"name" : "accessor_color_m3-PolyPaper0_-296496",
			"type" : "VEC4"
		},
		{
			"bufferView" : 0,
			"byteOffset" : 0,
			"componentType" : 5123,
			"count" : 18402,
			"max" : 
			[
				12797
			],
			"min" : 
			[
				0
			],
			"name" : "accessor_indices_0_m0-PolyPaper5_-296478",
			"type" : "SCALAR"
		},
		{
			"bufferView" : 0,
			"byteOffset" : 36804,
			"componentType" : 5123,
			"count" : 3888,
			"max" : 
			[
				2483
			],
			"min" : 
			[
				0
			],
			"name" : "accessor_indices_0_m1-PolyGem25_-296484",
			"type" : "SCALAR"
		},
		{
			"bufferView" : 0,
			"byteOffset" : 44580,
			"componentType" : 5123,
			"count" : 864,
			"max" : 
			[
				695
			],
			"min" : 
			[
				0
			],
			"name" : "accessor_indices_0_m2-PolyGlass24_-296490",
			"type" : "SCALAR"
		},
		{
			"bufferView" : 0,
			"byteOffset" : 46308,
			"componentType" : 5123,
			"count" : 19200,
			"max" : 
			[
				13649
			],
			"min" : 
			[
				0
			],
			"name" : "accessor_indices_0_m3-PolyPaper0_-296496",
			"type" : "SCALAR"
		},
		{
			"bufferView" : 1,
			"byteOffset" : 153576,
			"componentType" : 5126,
			"count" : 12798,
			"max" : 
			[
				0.9997464,
				1,
				0.9997982
			],
			"min" : 
			[
				-0.9997463,
				-1,
				-0.9999967
			],
			"name" : "accessor_normal_m0-PolyPaper5_-296478",
			"type" : "VEC3"
		},
		{
			"bufferView" : 1,
			"byteOffset" : 336960,
			"componentType" : 5126,
			"count" : 2484,
			"max" : 
			[
				0.9969555,
				0.9481315,
				0.9958495000000001
			],
			"min" : 
			[
				-0.9969137,
				-0.9492761,
				-0.9963307
			],
			"name" : "accessor_normal_m1-PolyGem25_-296484",
			"type" : "VEC3"
		},
		{
			"bufferView" : 1,
			"byteOffset" : 375120,
			"componentType" : 5126,
			"count" : 696,
			"max" : 
			[
				0.9916223,
				0.9988661,
				0.9896736
			],
			"min" : 
			[
				-0.9917727,
				-0.9988661,
				-0.9833938
			],
			"name" : "accessor_normal_m2-PolyGlass24_-296490",
			"type" : "VEC3"
		},
		{
			"bufferView" : 1,
			"byteOffset" : 547272,
			"componentType" : 5126,
			"count" : 13650,
			"max" : 
			[
				0.9998626,
				0.9998146,
				0.999815
			],
			"min" : 
			[
				-0.9998625,
				-0.998658,
				-0.9997721000000001
			],
			"name" : "accessor_normal_m3-PolyPaper0_-296496",
			"type" : "VEC3"
		},
		{
			"bufferView" : 1,
			"byteOffset" : 0,
			"componentType" : 5126,
			"count" : 12798,
			"max" : 
			[
				1.694908,
				3.085622,
				0.4850558
			],
			"min" : 
			[
				-0.5650915,
				0.8432686,
				-1.774944
			],
			"name" : "accessor_position_m0-PolyPaper5_-296478",
			"type" : "VEC3"
		},
		{
			"bufferView" : 1,
			"byteOffset" : 307152,
			"componentType" : 5126,
			"count" : 2484,
			"max" : 
			[
				1.466652,
				1.685806,
				0.3425305
			],
			"min" : 
			[
				-0.3222709,
				1.623462,
				-1.714901
			],
			"name" : "accessor_position_m1-PolyGem25_-296484",
			"type" : "VEC3"
		},
		{
			"bufferView" : 1,
			"byteOffset" : 366768,
			"componentType" : 5126,
			"count" : 696,
			"max" : 
			[
				1.489814,
				1.619555,
				0.2784098
			],
			"min" : 
			[
				-0.3333799,
				1.541851,
				-1.582009
			],
			"name" : "accessor_position_m2-PolyGlass24_-296490",
			"type" : "VEC3"
		},
		{
			"bufferView" : 1,
			"byteOffset" : 383472,
			"componentType" : 5126,
			"count" : 13650,
			"max" : 
			[
				2.124988,
				2.639234,
				0.9150936
			],
			"min" : 
			[
				-0.995012,
				0.522913,
				-2.204906
			],
			"name" : "accessor_position_m3-PolyPaper0_-296496",
			"type" : "VEC3"
		}
	],
	"asset" : 
	{
		"copyright" : "Unknown",
		"generator" : "glTF 1-to-2 Upgrader for Google Blocks",
		"version" : "2.0"
	},
	"bufferViews" : 
	[
		{
			"buffer" : 0,
			"byteLength" : 84708,
			"byteOffset" : 0,
			"name" : "ushortBufferView",
			"target" : 34963
		},
		{
			"buffer" : 0,
			"byteLength" : 711072,
			"byteOffset" : 84708,
			"byteStride" : 12,
			"name" : "vec3BufferView",
			"target" : 34962
		},
		{
			"buffer" : 0,
			"byteLength" : 474048,
			"byteOffset" : 795780,
			"byteStride" : 16,
			"name" : "vec4BufferView",
			"target" : 34962
		}
	],
	"buffers" : 
	[
		{
			"byteLength" : 1269828,
			"name" : "model",
			"uri" : "model.bin"
		}
	],
	"materials" : 
	[
		{
			"alphaMode" : "OPAQUE",
			"doubleSided" : false,
			"name" : "BlocksPaper",
			"pbrMetallicRoughness" : 
			{
				"baseColorFactor" : 
				[
					1,
					1,
					1,
					1
				],
				"metallicFactor" : 0,
				"roughnessFactor" : 0.6
			}
		},
		{
			"alphaMode" : "BLEND",
			"doubleSided" : false,
			"name" : "BlocksGlass",
			"pbrMetallicRoughness" : 
			{
				"baseColorFactor" : 
				[
					0.2,
					0.2,
					1,
					0.3
				],
				"metallicFactor" : 1,
				"roughnessFactor" : 0.4
			}
		},
		{
			"alphaMode" : "OPAQUE",
			"doubleSided" : true,
			"name" : "BlocksGem",
			"pbrMetallicRoughness" : 
			{
				"baseColorFactor" : 
				[
					1,
					0.4,
					1,
					1
				],
				"metallicFactor" : 0,
				"roughnessFactor" : 0.1
			}
		}
	],
	"meshes" : 
	[
		{
			"name" : "mesh_m0-PolyPaper5_-296478",
			"primitives" : 
			[
				{
					"attributes" : 
					{
						"COLOR_0" : 0,
						"NORMAL" : 8,
						"POSITION" : 12
					},
					"indices" : 4,
					"material" : 0,
					"mode" : 4
				}
			]
		},
		{
			"name" : "mesh_m1-PolyGem25_-296484",
			"primitives" : 
			[
				{
					"attributes" : 
					{
						"COLOR_0" : 1,
						"NORMAL" : 9,
						"POSITION" : 13
					},
					"indices" : 5,
					"material" : 2,
					"mode" : 4
				}
			]
		},
		{
			"name" : "mesh_m2-PolyGlass24_-296490",
			"primitives" : 
			[
				{
					"attributes" : 
					{
						"COLOR_0" : 2,
						"NORMAL" : 10,
						"POSITION" : 14
					},
					"indices" : 6,
					"material" : 1,
					"mode" : 4
				}
			]
		},
		{
			"name" : "mesh_m3-PolyPaper0_-296496",
			"primitives" : 
			[
				{
					"attributes" : 
					{
						"COLOR_0" : 3,
						"NORMAL" : 11,
						"POSITION" : 15
					},
					"indices" : 7,
					"material" : 0,
					"mode" : 4
				}
			]
		}
	],
	"nodes" : 
	[
		{
			"matrix" : 
			[
				1,
				0,
				0,
				0,
				0,
				1,
				0,
				0,
				0,
				0,
				1,
				0,
				0,
				0,
				0,
				1
			],
			"mesh" : 1,
			"name" : "node_MeshObject-242619392-PolyGem25"
		},
		{
			"matrix" : 
			[
				1,
				0,
				0,
				0,
				0,
				1,
				0,
				0,
				0,
				0,
				1,
				0,
				0,
				0,
				0,
				1
			],
			"mesh" : 0,
			"name" : "node_MeshObject1191952384-PolyPaper5"
		},
		{
			"matrix" : 
			[
				1,
				0,
				0,
				0,
				0,
				1,
				0,
				0,
				0,
				0,
				1,
				0,
				0,
				0,
				0,
				1
			],
			"mesh" : 2,
			"name" : "node_MeshObject329459712-PolyGlass24"
		},
		{
			"matrix" : 
			[
				1,
				0,
				0,
				0,
				0,
				1,
				0,
				0,
				0,
				0,
				1,
				0,
				0,
				0,
				0,
				1
			],
			"mesh" : 3,
			"name" : "node_MeshObject901538816-PolyPaper0"
		}
	],
	"scene" : 0,
	"scenes" : 
	[
		{
			"extras" : {},
			"name" : "defaultScene",
			"nodes" : 
			[
				1,
				0,
				2,
				3
			]
		}
	]
}